<?xml version="1.0" encoding="utf-8"?>
<!-- Generator: Adobe Illustrator 26.0.1, SVG Export Plug-In . SVG Version: 6.00 Build 0)  -->
<svg version="1.1" id="Layer_1" xmlns="http://www.w3.org/2000/svg" xmlns:xlink="http://www.w3.org/1999/xlink" x="0px" y="0px"
	 viewBox="0 0 1080 1080" style="enable-background:new 0 0 1080 1080;" xml:space="preserve">
<style type="text/css">
	.st0{fill:#2563EB;}
</style>
<g>
	<g>
		<path class="st0" d="M341,281.65c15.38-0.21,32.25,6.98,45.58,20.51c7.62,7.74,13.14,17.76,18.71,27.27
			c9.94,16.98,19.2,34.35,28.75,51.56c10.52,18.96,21,37.94,31.58,56.87c6.76,12.11,13.72,24.1,20.48,36.21
			c8.63,15.45,17.1,30.99,25.72,46.45c4.75,8.52,10.19,16.69,14.35,25.49c8.14,17.24,10.24,35.18,4.37,53.72
			c-4.47,14.13-12.33,25.74-23.85,35.17c-17.98,14.71-38.37,18.89-60.71,14.53c-18.55-3.62-32.92-14.06-44.05-29.05
			c-4.43-5.96-8.07-12.51-12.48-18.48c-8.09-10.95-19.58-17.31-32.56-19.28c-11.54-1.75-23.62-2.06-35.21-0.78
			c-17.42,1.93-31.88,10.42-42.5,24.79c-5.88,7.96-10.91,16.81-17.9,23.66c-20.33,19.92-45.15,25.53-72.11,17.54
			c-22.69-6.73-38.16-22.22-46.56-44.65c-7.19-19.19-5.67-38.02,2.85-56.1c6.62-14.04,17.33-24.65,31.21-32.16
			c20.65-11.18,41.77-11.19,62.9-2.66c14.1,5.69,24.4,16.33,33.43,28.61c10.54,14.35,25.79,21.85,43.29,19.83
			c24.83-2.87,36.99-27.26,24.42-50.08c-13.73-24.92-27.75-49.68-41.64-74.51c-8.88-15.87-17.7-31.79-26.69-47.6
			c-8.37-14.71-9.67-30.52-7.44-46.82c2.35-17.16,10.77-31.02,23.78-42.34C302.96,286.95,319.56,281.22,341,281.65z"/>
		<path class="st0" d="M857.22,651.33H677.56c-30.56,0-58.75-16.47-73.74-43.1l-16.38-29.08L480.62,389.58
			c-27.2-48.27,7.68-107.95,63.08-107.95h0c26.14,0,50.25,14.09,63.08,36.86l111.24,197.44c3.21,5.69,9.23,9.21,15.76,9.21l0,0
			c13.84,0,22.56-14.91,15.76-26.97l-61.19-108.59c-27.2-48.27,7.68-107.95,63.08-107.95h0c26.14,0,50.25,14.09,63.08,36.86
			l116.43,206.65l0,0C962.74,581.57,921.98,651.33,857.22,651.33z"/>
	</g>
	<g>
		<path class="st0" d="M202.66,777.25h-32.08l-3,9.47h-29.27l28.43-78.8h39.78l28.52,78.8h-29.36L202.66,777.25z M196,756.33
			l-6.94-21.77h-4.88l-6.94,21.77H196z"/>
		<path class="st0" d="M294.4,786.72l-9.94-19.32h-17.82v19.32H238.3v-78.8h46.34c22.14,0,34.71,9.19,34.71,30.77
			c0,10.32-4.5,17.82-10.79,22.52l13.7,25.52H294.4z M266.63,746.29h15.95c5.63,0,8.35-2.82,8.35-7.41c0-4.6-2.72-7.41-8.35-7.41
			h-15.95V746.29z"/>
		<path class="st0" d="M323.37,747.32c0-25.42,17.54-42.03,45.03-42.03c27.58,0,45.12,16.6,45.12,42.03s-17.54,42.03-45.12,42.03
			C340.91,789.35,323.37,772.74,323.37,747.32z M385.29,747.32c0-11.44-7.79-17.54-16.89-17.54c-9.01,0-16.89,6.1-16.89,17.54
			c0,11.45,7.88,17.54,16.89,17.54C377.5,764.86,385.29,758.77,385.29,747.32z"/>
		<path class="st0" d="M418.3,751.82v-43.9h28.61v43.25c0,8.82,3.66,14.45,13.13,14.45c9.48,0,13.32-5.63,13.32-14.45v-43.25h28.43
			v43.72c0,26.08-13.7,37.71-41.75,37.71C431.99,789.35,418.3,777.72,418.3,751.82z"/>
		<path class="st0" d="M507.87,707.92h32.46l22.7,39.12h2.63v-39.12h27.67v78.8h-31.8l-23.45-39.12h-2.53v39.12h-27.67V707.92z"/>
		<path class="st0" d="M683.85,747.32c0,22.7-11.16,39.4-43.72,39.4h-40.71v-78.8h40.71C672.69,707.92,683.85,724.52,683.85,747.32z
			 M655.34,747.32c0-11.82-6.85-15.67-15.2-15.67h-12.19l-0.1,31.33h12.29C648.49,762.99,655.34,759.05,655.34,747.32z"/>
		<path class="st0" d="M735.25,762.52v24.2h-28.43v-24.48l-32.08-54.32h29.83l15.48,27.77h2.16l15.48-27.77h29.74L735.25,762.52z"/>
		<path class="st0" d="M760.57,747.32c0-25.42,17.54-42.03,45.03-42.03c27.58,0,45.12,16.6,45.12,42.03s-17.54,42.03-45.12,42.03
			C778.11,789.35,760.57,772.74,760.57,747.32z M822.49,747.32c0-11.44-7.79-17.54-16.89-17.54c-9.01,0-16.89,6.1-16.89,17.54
			c0,11.45,7.88,17.54,16.89,17.54C814.7,764.86,822.49,758.77,822.49,747.32z"/>
		<path class="st0" d="M855.5,751.82v-43.9h28.61v43.25c0,8.82,3.66,14.45,13.13,14.45c9.47,0,13.32-5.63,13.32-14.45v-43.25h28.43
			v43.72c0,26.08-13.7,37.71-41.75,37.71C869.19,789.35,855.5,777.72,855.5,751.82z"/>
	</g>
</g>
</svg>
